<mxfile host="65bd71144e">
    <diagram id="Ua_fo4zepguwgVQzOqKs" name="Page-1">
        <mxGraphModel dx="986" dy="771" grid="1" gridSize="10" guides="1" tooltips="1" connect="1" arrows="1" fold="1" page="1" pageScale="1" pageWidth="850" pageHeight="1100" math="0" shadow="0">
            <root>
                <mxCell id="0"/>
                <mxCell id="1" parent="0"/>
                <mxCell id="3" value="User" style="swimlane;fontStyle=0;childLayout=stackLayout;horizontal=1;startSize=30;horizontalStack=0;resizeParent=1;resizeParentMax=0;resizeLast=0;collapsible=1;marginBottom=0;whiteSpace=wrap;html=1;fontSize=15;" parent="1" vertex="1">
                    <mxGeometry x="40" y="40" width="240" height="360" as="geometry"/>
                </mxCell>
                <mxCell id="4" value="-Id : INT PRIMARY KEY" style="text;strokeColor=none;fillColor=none;align=left;verticalAlign=middle;spacingLeft=4;spacingRight=4;overflow=hidden;points=[[0,0.5],[1,0.5]];portConstraint=eastwest;rotatable=0;whiteSpace=wrap;html=1;fontSize=15;" parent="3" vertex="1">
                    <mxGeometry y="30" width="240" height="30" as="geometry"/>
                </mxCell>
                <mxCell id="11" value="&lt;span style=&quot;color: rgb(0, 0, 0);&quot;&gt;-isAdmin : Boolean&lt;/span&gt;" style="text;strokeColor=none;fillColor=none;align=left;verticalAlign=middle;spacingLeft=4;spacingRight=4;overflow=hidden;points=[[0,0.5],[1,0.5]];portConstraint=eastwest;rotatable=0;whiteSpace=wrap;html=1;fontSize=15;" parent="3" vertex="1">
                    <mxGeometry y="60" width="240" height="30" as="geometry"/>
                </mxCell>
                <mxCell id="36" value="&lt;span style=&quot;color: rgb(0, 0, 0);&quot;&gt;-role: Int&lt;/span&gt;" style="text;strokeColor=none;fillColor=none;align=left;verticalAlign=middle;spacingLeft=4;spacingRight=4;overflow=hidden;points=[[0,0.5],[1,0.5]];portConstraint=eastwest;rotatable=0;whiteSpace=wrap;html=1;fontSize=15;" parent="3" vertex="1">
                    <mxGeometry y="90" width="240" height="30" as="geometry"/>
                </mxCell>
                <mxCell id="6" value="-firstname : String" style="text;strokeColor=none;fillColor=none;align=left;verticalAlign=middle;spacingLeft=4;spacingRight=4;overflow=hidden;points=[[0,0.5],[1,0.5]];portConstraint=eastwest;rotatable=0;whiteSpace=wrap;html=1;fontSize=15;" parent="3" vertex="1">
                    <mxGeometry y="120" width="240" height="30" as="geometry"/>
                </mxCell>
                <mxCell id="7" value="&lt;span style=&quot;color: rgb(0, 0, 0);&quot;&gt;-lastname : String&lt;/span&gt;" style="text;strokeColor=none;fillColor=none;align=left;verticalAlign=middle;spacingLeft=4;spacingRight=4;overflow=hidden;points=[[0,0.5],[1,0.5]];portConstraint=eastwest;rotatable=0;whiteSpace=wrap;html=1;fontSize=15;" parent="3" vertex="1">
                    <mxGeometry y="150" width="240" height="30" as="geometry"/>
                </mxCell>
                <mxCell id="24" value="&lt;span style=&quot;color: rgb(0, 0, 0);&quot;&gt;-image : String&lt;/span&gt;" style="text;strokeColor=none;fillColor=none;align=left;verticalAlign=middle;spacingLeft=4;spacingRight=4;overflow=hidden;points=[[0,0.5],[1,0.5]];portConstraint=eastwest;rotatable=0;whiteSpace=wrap;html=1;fontSize=15;" parent="3" vertex="1">
                    <mxGeometry y="180" width="240" height="30" as="geometry"/>
                </mxCell>
                <mxCell id="8" value="&lt;span style=&quot;color: rgb(0, 0, 0);&quot;&gt;-email : String&lt;/span&gt;" style="text;strokeColor=none;fillColor=none;align=left;verticalAlign=middle;spacingLeft=4;spacingRight=4;overflow=hidden;points=[[0,0.5],[1,0.5]];portConstraint=eastwest;rotatable=0;whiteSpace=wrap;html=1;fontSize=15;" parent="3" vertex="1">
                    <mxGeometry y="210" width="240" height="30" as="geometry"/>
                </mxCell>
                <mxCell id="9" value="&lt;span style=&quot;color: rgb(0, 0, 0);&quot;&gt;-tel : String&lt;/span&gt;" style="text;strokeColor=none;fillColor=none;align=left;verticalAlign=middle;spacingLeft=4;spacingRight=4;overflow=hidden;points=[[0,0.5],[1,0.5]];portConstraint=eastwest;rotatable=0;whiteSpace=wrap;html=1;fontSize=15;" parent="3" vertex="1">
                    <mxGeometry y="240" width="240" height="30" as="geometry"/>
                </mxCell>
                <mxCell id="10" value="&lt;span style=&quot;color: rgb(0, 0, 0);&quot;&gt;-password: String&lt;/span&gt;" style="text;strokeColor=none;fillColor=none;align=left;verticalAlign=middle;spacingLeft=4;spacingRight=4;overflow=hidden;points=[[0,0.5],[1,0.5]];portConstraint=eastwest;rotatable=0;whiteSpace=wrap;html=1;fontSize=15;" parent="3" vertex="1">
                    <mxGeometry y="270" width="240" height="30" as="geometry"/>
                </mxCell>
                <mxCell id="12" value="&lt;span style=&quot;color: rgb(0, 0, 0);&quot;&gt;-address: String&lt;/span&gt;" style="text;strokeColor=none;fillColor=none;align=left;verticalAlign=middle;spacingLeft=4;spacingRight=4;overflow=hidden;points=[[0,0.5],[1,0.5]];portConstraint=eastwest;rotatable=0;whiteSpace=wrap;html=1;fontSize=15;" parent="3" vertex="1">
                    <mxGeometry y="300" width="240" height="30" as="geometry"/>
                </mxCell>
                <mxCell id="22" value="&lt;span style=&quot;color: rgb(0, 0, 0);&quot;&gt;-sex: Boolean&lt;/span&gt;" style="text;strokeColor=none;fillColor=none;align=left;verticalAlign=middle;spacingLeft=4;spacingRight=4;overflow=hidden;points=[[0,0.5],[1,0.5]];portConstraint=eastwest;rotatable=0;whiteSpace=wrap;html=1;fontSize=15;" parent="3" vertex="1">
                    <mxGeometry y="330" width="240" height="30" as="geometry"/>
                </mxCell>
                <mxCell id="13" value="Client" style="swimlane;fontStyle=0;childLayout=stackLayout;horizontal=1;startSize=30;horizontalStack=0;resizeParent=1;resizeParentMax=0;resizeLast=0;collapsible=1;marginBottom=0;whiteSpace=wrap;html=1;fontSize=15;" parent="1" vertex="1">
                    <mxGeometry x="400" y="40" width="240" height="300" as="geometry"/>
                </mxCell>
                <mxCell id="14" value="-Id : INT PRIMARY KEY" style="text;strokeColor=none;fillColor=none;align=left;verticalAlign=middle;spacingLeft=4;spacingRight=4;overflow=hidden;points=[[0,0.5],[1,0.5]];portConstraint=eastwest;rotatable=0;whiteSpace=wrap;html=1;fontSize=15;" parent="13" vertex="1">
                    <mxGeometry y="30" width="240" height="30" as="geometry"/>
                </mxCell>
                <mxCell id="16" value="-firstname : String" style="text;strokeColor=none;fillColor=none;align=left;verticalAlign=middle;spacingLeft=4;spacingRight=4;overflow=hidden;points=[[0,0.5],[1,0.5]];portConstraint=eastwest;rotatable=0;whiteSpace=wrap;html=1;fontSize=15;" parent="13" vertex="1">
                    <mxGeometry y="60" width="240" height="30" as="geometry"/>
                </mxCell>
                <mxCell id="17" value="&lt;span style=&quot;color: rgb(0, 0, 0);&quot;&gt;-lastname : String&lt;/span&gt;" style="text;strokeColor=none;fillColor=none;align=left;verticalAlign=middle;spacingLeft=4;spacingRight=4;overflow=hidden;points=[[0,0.5],[1,0.5]];portConstraint=eastwest;rotatable=0;whiteSpace=wrap;html=1;fontSize=15;" parent="13" vertex="1">
                    <mxGeometry y="90" width="240" height="30" as="geometry"/>
                </mxCell>
                <mxCell id="25" value="&lt;span style=&quot;color: rgb(0, 0, 0);&quot;&gt;-image : String&lt;/span&gt;" style="text;strokeColor=none;fillColor=none;align=left;verticalAlign=middle;spacingLeft=4;spacingRight=4;overflow=hidden;points=[[0,0.5],[1,0.5]];portConstraint=eastwest;rotatable=0;whiteSpace=wrap;html=1;fontSize=15;" parent="13" vertex="1">
                    <mxGeometry y="120" width="240" height="30" as="geometry"/>
                </mxCell>
                <mxCell id="18" value="&lt;span style=&quot;color: rgb(0, 0, 0);&quot;&gt;-email : String&lt;/span&gt;" style="text;strokeColor=none;fillColor=none;align=left;verticalAlign=middle;spacingLeft=4;spacingRight=4;overflow=hidden;points=[[0,0.5],[1,0.5]];portConstraint=eastwest;rotatable=0;whiteSpace=wrap;html=1;fontSize=15;" parent="13" vertex="1">
                    <mxGeometry y="150" width="240" height="30" as="geometry"/>
                </mxCell>
                <mxCell id="19" value="&lt;span style=&quot;color: rgb(0, 0, 0);&quot;&gt;-tel : String&lt;/span&gt;" style="text;strokeColor=none;fillColor=none;align=left;verticalAlign=middle;spacingLeft=4;spacingRight=4;overflow=hidden;points=[[0,0.5],[1,0.5]];portConstraint=eastwest;rotatable=0;whiteSpace=wrap;html=1;fontSize=15;" parent="13" vertex="1">
                    <mxGeometry y="180" width="240" height="30" as="geometry"/>
                </mxCell>
                <mxCell id="20" value="&lt;span style=&quot;color: rgb(0, 0, 0);&quot;&gt;-identifiant: String&lt;/span&gt;" style="text;strokeColor=none;fillColor=none;align=left;verticalAlign=middle;spacingLeft=4;spacingRight=4;overflow=hidden;points=[[0,0.5],[1,0.5]];portConstraint=eastwest;rotatable=0;whiteSpace=wrap;html=1;fontSize=15;" parent="13" vertex="1">
                    <mxGeometry y="210" width="240" height="30" as="geometry"/>
                </mxCell>
                <mxCell id="21" value="&lt;span style=&quot;color: rgb(0, 0, 0);&quot;&gt;-address: String&lt;/span&gt;" style="text;strokeColor=none;fillColor=none;align=left;verticalAlign=middle;spacingLeft=4;spacingRight=4;overflow=hidden;points=[[0,0.5],[1,0.5]];portConstraint=eastwest;rotatable=0;whiteSpace=wrap;html=1;fontSize=15;" parent="13" vertex="1">
                    <mxGeometry y="240" width="240" height="30" as="geometry"/>
                </mxCell>
                <mxCell id="23" value="&lt;span style=&quot;color: rgb(0, 0, 0);&quot;&gt;-sex: Boolean&lt;/span&gt;" style="text;strokeColor=none;fillColor=none;align=left;verticalAlign=middle;spacingLeft=4;spacingRight=4;overflow=hidden;points=[[0,0.5],[1,0.5]];portConstraint=eastwest;rotatable=0;whiteSpace=wrap;html=1;fontSize=15;" parent="13" vertex="1">
                    <mxGeometry y="270" width="240" height="30" as="geometry"/>
                </mxCell>
                <mxCell id="37" value="Abonnement" style="swimlane;fontStyle=0;childLayout=stackLayout;horizontal=1;startSize=30;horizontalStack=0;resizeParent=1;resizeParentMax=0;resizeLast=0;collapsible=1;marginBottom=0;whiteSpace=wrap;html=1;fontSize=15;" parent="1" vertex="1">
                    <mxGeometry x="370" y="430" width="240" height="90" as="geometry"/>
                </mxCell>
                <mxCell id="38" value="-Id : INT PRIMARY KEY" style="text;strokeColor=none;fillColor=none;align=left;verticalAlign=middle;spacingLeft=4;spacingRight=4;overflow=hidden;points=[[0,0.5],[1,0.5]];portConstraint=eastwest;rotatable=0;whiteSpace=wrap;html=1;fontSize=15;" parent="37" vertex="1">
                    <mxGeometry y="30" width="240" height="30" as="geometry"/>
                </mxCell>
                <mxCell id="39" value="-code : String" style="text;strokeColor=none;fillColor=none;align=left;verticalAlign=middle;spacingLeft=4;spacingRight=4;overflow=hidden;points=[[0,0.5],[1,0.5]];portConstraint=eastwest;rotatable=0;whiteSpace=wrap;html=1;fontSize=15;" parent="37" vertex="1">
                    <mxGeometry y="60" width="240" height="30" as="geometry"/>
                </mxCell>
            </root>
        </mxGraphModel>
    </diagram>
</mxfile>